<?xml version="1.0" standalone="no"?>
<!DOCTYPE svg PUBLIC "-//W3C//DTD SVG 20010904//EN"
 "http://www.w3.org/TR/2001/REC-SVG-20010904/DTD/svg10.dtd">
<svg version="1.0" xmlns="http://www.w3.org/2000/svg"
 width="252.000000pt" height="252.000000pt" viewBox="0 0 252.000000 252.000000"
 preserveAspectRatio="xMidYMid meet">
<metadata>
Created by potrace 1.14, written by Peter Selinger 2001-2017
</metadata>
<g transform="translate(0.000000,252.000000) scale(0.100000,-0.100000)"
fill="#000000" stroke="none">
<path d="M1000 2474 c-300 -77 -546 -297 -649 -580 -51 -140 -61 -212 -61
-445 0 -187 2 -210 15 -199 12 10 15 47 15 209 0 220 9 290 49 408 41 119 104
223 195 320 125 133 243 208 413 260 80 24 103 27 253 27 152 0 172 -2 253
-27 255 -79 447 -239 563 -469 85 -169 87 -183 93 -612 5 -291 9 -380 19 -384
20 -6 17 639 -4 748 -72 383 -358 676 -736 755 -112 24 -304 19 -418 -11z"/>
<path d="M1105 2460 c-298 -45 -573 -253 -695 -524 -60 -135 -71 -200 -77
-444 -5 -215 -5 -224 13 -220 18 3 19 19 25 238 5 221 7 240 33 320 50 152
127 273 250 387 301 283 789 297 1122 33 129 -102 249 -287 296 -455 20 -75
22 -106 26 -457 3 -331 5 -376 19 -371 13 5 14 53 10 377 -4 345 -6 377 -26
451 -92 330 -342 572 -671 650 -82 19 -247 27 -325 15z"/>
<path d="M1139 2423 l-37 -4 29 -57 c16 -31 32 -82 37 -112 l7 -55 323 -3 322
-2 -37 33 c-93 82 -214 145 -343 178 -75 19 -234 31 -301 22z"/>
<path d="M975 2386 c-138 -45 -229 -100 -338 -205 -81 -78 -130 -146 -122
-170 11 -35 121 -128 171 -145 65 -22 83 -21 77 4 l-5 20 47 -20 c25 -11 59
-20 73 -20 33 0 105 32 148 65 l31 24 59 -60 c32 -32 63 -59 68 -59 6 0 -18
29 -53 64 l-64 64 20 29 c89 125 97 281 20 399 -26 40 -38 41 -132 10z"/>
<path d="M469 1958 c-23 -46 -61 -149 -56 -154 2 -2 33 27 70 64 l67 67 -23
33 c-12 17 -25 32 -29 32 -4 0 -17 -19 -29 -42z"/>
<path d="M790 1856 c0 -1 10 -30 21 -66 44 -135 35 -453 -21 -699 -22 -98 -27
-88 80 -142 38 -19 86 -34 116 -37 47 -4 53 -2 97 36 70 61 157 78 242 47 48
-17 168 -19 285 -5 131 16 120 4 120 139 0 130 -23 339 -41 372 -17 32 -6 107
25 174 l27 60 -31 26 c-79 67 -293 83 -505 39 -143 -29 -211 -25 -328 22 -48
19 -87 35 -87 34z m559 -77 c114 -24 220 -127 254 -246 13 -44 13 -54 2 -70
-8 -10 -15 -34 -15 -54 0 -76 -26 -131 -97 -206 -90 -95 -138 -118 -253 -117
-148 0 -259 66 -315 187 -25 53 -33 121 -15 132 6 3 10 30 10 59 0 77 16 113
84 189 111 125 201 157 345 126z"/>
<path d="M1145 1746 c-63 -29 -190 -161 -199 -207 -3 -17 -6 -50 -6 -73 0 -22
-7 -53 -15 -69 -12 -24 -12 -33 0 -75 43 -143 178 -230 339 -220 90 6 142 32
213 107 69 71 84 100 91 175 2 34 10 69 17 79 16 23 3 87 -30 144 -81 138
-274 203 -410 139z m276 -38 c65 -34 112 -87 136 -151 14 -38 16 -87 4 -87 -4
0 -11 -30 -15 -66 -9 -86 -23 -117 -85 -186 -67 -74 -121 -100 -208 -100 -128
0 -237 63 -287 164 -26 52 -34 108 -16 108 6 0 10 26 10 58 1 80 19 123 81
187 92 96 138 117 246 111 58 -4 85 -11 134 -38z"/>
<path d="M1152 1704 c-54 -27 -143 -120 -162 -168 -5 -15 -10 -56 -10 -92 0
-36 -4 -64 -10 -64 -14 0 -12 -35 4 -75 53 -125 216 -200 351 -160 46 13 68
27 111 72 66 70 83 105 91 190 3 38 12 73 19 78 24 20 -12 102 -69 160 -88 88
-219 112 -325 59z m108 -60 c14 -37 12 -102 -4 -111 -7 -4 -18 -24 -25 -44 -6
-20 -21 -45 -32 -55 -20 -18 -21 -18 -36 1 -19 25 -12 104 11 120 9 7 13 15
10 18 -14 13 35 97 57 97 5 0 14 -12 19 -26z m140 -30 c14 -36 12 -102 -3
-111 -7 -4 -21 -29 -31 -55 -19 -53 -44 -68 -64 -41 -16 21 -9 102 11 118 6 6
12 16 13 23 3 34 6 41 25 66 26 33 37 33 49 0z m-296 -90 c18 -7 22 -39 6 -49
-6 -4 -10 -30 -9 -58 2 -29 -1 -59 -5 -68 -10 -23 36 -75 81 -89 52 -18 117
-7 159 25 43 33 78 103 62 122 -14 18 7 43 37 43 37 0 50 -24 32 -62 -8 -18
-18 -43 -21 -54 -4 -12 -15 -29 -26 -39 -11 -10 -20 -31 -20 -46 0 -59 -33
-89 -72 -67 -13 7 -55 12 -94 13 -60 0 -77 4 -113 28 -65 43 -124 148 -89 159
14 5 20 88 7 104 -24 30 20 55 65 38z"/>
<path d="M1215 1620 c-9 -17 -13 -35 -9 -41 3 -6 -3 -19 -15 -30 -15 -15 -21
-32 -21 -65 0 -58 19 -55 40 7 8 24 21 48 28 52 14 9 17 93 2 102 -5 3 -16 -8
-25 -25z"/>
<path d="M1355 1591 c-8 -16 -12 -36 -9 -45 3 -8 -4 -24 -15 -35 -22 -22 -31
-101 -11 -101 11 0 40 53 40 73 0 8 7 20 15 27 17 14 21 95 5 105 -5 3 -16 -8
-25 -24z"/>
<path d="M1050 1500 c0 -5 4 -10 9 -10 14 0 7 -104 -8 -116 -22 -17 2 -65 54
-113 48 -44 92 -57 162 -47 35 5 51 2 64 -10 16 -14 21 -15 34 -4 9 8 15 25
14 39 -2 16 9 42 29 70 18 24 32 55 32 68 0 12 5 23 10 23 6 0 10 7 10 15 0 9
-9 15 -25 15 -24 0 -35 -15 -16 -22 15 -5 -15 -78 -46 -110 -62 -66 -135 -83
-208 -49 -64 30 -122 105 -91 117 11 4 13 18 9 58 -4 34 -1 56 6 60 19 12 12
26 -14 26 -14 0 -25 -4 -25 -10z"/>
<path d="M802 1515 c0 -121 4 -207 8 -190 10 40 10 353 0 385 -5 14 -8 -71 -8
-195z"/>
<path d="M320 1240 c-19 -19 -22 -19 -43 -5 -67 47 -126 -37 -80 -116 16 -27
16 -29 -6 -53 -14 -14 -21 -33 -19 -48 2 -19 8 -23 38 -22 19 1 54 8 78 15 41
13 45 12 101 -19 77 -42 103 -42 129 2 14 24 29 36 48 38 19 2 34 13 44 31 13
24 13 30 0 55 -10 17 -26 28 -43 30 -15 2 -27 9 -27 17 0 24 -50 55 -76 49
-19 -5 -29 0 -45 20 -25 32 -70 35 -99 6z"/>
<path d="M1894 1101 l160 -160 -30 -8 c-16 -4 -58 -8 -94 -8 -81 0 -127 24
-156 81 l-21 41 -10 -28 c-8 -22 -19 -29 -49 -34 -47 -7 -181 -58 -166 -63 6
-2 27 4 47 12 52 22 84 20 105 -6 14 -18 26 -22 63 -19 25 1 48 -2 51 -7 3 -6
24 -8 47 -5 26 4 44 2 48 -6 5 -8 15 -9 32 -3 13 5 54 8 92 7 44 -2 67 1 67 9
0 6 3 21 6 34 5 16 3 21 -7 17 -9 -3 -74 55 -169 150 -85 85 -159 155 -165
155 -5 0 62 -72 149 -159z"/>
<path d="M710 1182 c0 -11 66 -42 74 -35 3 4 6 15 6 25 0 14 -8 18 -40 18 -22
0 -40 -4 -40 -8z"/>
<path d="M1231 959 c0 -20 -4 -78 -8 -129 l-6 -92 22 11 c18 10 21 18 16 44
-3 18 -10 70 -14 117 -5 47 -9 69 -10 49z"/>
<path d="M373 915 c0 -38 2 -53 4 -32 2 20 2 52 0 70 -2 17 -4 1 -4 -38z"/>
<path d="M2127 958 c-9 -7 -23 -30 -32 -50 -14 -35 -17 -36 -50 -31 -61 10
-81 -27 -47 -86 13 -23 14 -35 6 -48 -19 -30 -40 -38 -66 -25 l-23 13 24 -5
c51 -10 71 50 27 79 -62 41 -118 -25 -85 -99 17 -36 48 -44 199 -50 146 -5
207 3 227 30 20 28 16 43 -23 78 -31 29 -36 40 -44 100 -5 40 -15 75 -26 87
-20 22 -62 25 -87 7z"/>
<path d="M811 916 c-22 -36 -90 -76 -129 -76 -12 0 -51 11 -88 25 -80 30 -113
31 -163 6 -59 -31 -65 -42 -57 -118 16 -159 108 -350 229 -479 286 -306 752
-362 1102 -132 143 94 260 233 324 384 50 120 53 111 -33 116 -42 3 -81 10
-88 16 -10 8 -45 -10 -143 -73 -350 -225 -418 -265 -458 -265 -27 0 -67 30
-67 50 0 6 -8 10 -19 10 -10 0 -29 8 -42 19 -16 12 -30 16 -44 10 -36 -14 -73
-10 -87 10 -12 17 -16 17 -33 5 -27 -20 -63 -17 -83 7 -58 72 -53 69 -106 57
-39 -10 -51 -9 -54 0 -2 7 -10 12 -18 12 -7 0 -16 11 -20 24 -7 29 -29 40 -54
26 -28 -15 -77 -12 -95 6 -13 14 -20 14 -45 4 -16 -7 -36 -10 -44 -7 -8 3 -16
1 -18 -5 -7 -19 -48 25 -48 50 0 16 4 21 13 16 9 -6 9 -4 -1 8 -26 32 14 63
106 83 18 4 36 13 39 21 3 9 20 14 44 14 30 0 443 108 519 136 10 4 1 11 -25
21 -44 16 -41 16 -110 7 -48 -6 -70 0 -166 40 -12 5 -23 -3 -38 -28z"/>
<path d="M1593 928 c-18 -6 -33 -15 -33 -19 0 -11 -3 -12 55 11 52 20 35 26
-22 8z"/>
<path d="M1475 910 c4 -6 11 -8 16 -5 14 9 11 15 -7 15 -8 0 -12 -5 -9 -10z"/>
<path d="M1642 908 c3 -7 13 -15 22 -16 12 -3 17 1 14 10 -3 7 -13 15 -22 16
-12 3 -17 -1 -14 -10z"/>
<path d="M1341 881 c-68 -24 -103 -51 -69 -51 23 0 163 57 161 66 -3 15 -17
13 -92 -15z"/>
<path d="M1750 885 c12 -15 30 -12 30 6 0 5 -10 9 -21 9 -18 0 -19 -2 -9 -15z"/>
<path d="M1455 878 c-141 -49 -185 -70 -185 -89 0 -10 3 -19 6 -19 10 0 239
102 249 111 12 12 -33 10 -70 -3z"/>
<path d="M1420 817 c-85 -40 -197 -90 -248 -112 -82 -35 -91 -41 -76 -52 23
-17 24 -17 264 97 113 53 217 102 233 108 15 6 27 16 27 22 0 22 -51 6 -200
-63z"/>
<path d="M1720 875 c7 -9 15 -13 17 -11 7 7 -7 26 -19 26 -6 0 -6 -6 2 -15z"/>
<path d="M1850 875 c12 -15 30 -12 30 6 0 5 -10 9 -21 9 -18 0 -19 -2 -9 -15z"/>
<path d="M1580 836 c-52 -23 -142 -64 -200 -92 -58 -28 -138 -66 -178 -84 -66
-30 -72 -35 -56 -47 25 -18 49 -10 254 92 102 50 215 104 252 120 55 22 66 31
57 41 -16 19 -21 18 -129 -30z"/>
<path d="M1951 863 c7 -10 14 -19 15 -21 1 -1 4 6 7 18 4 15 0 20 -15 20 -18
0 -19 -2 -7 -17z"/>
<path d="M1635 801 c-82 -37 -206 -96 -274 -130 l-124 -63 21 -20 20 -21 169
89 c92 50 216 112 274 139 68 32 105 55 102 63 -8 20 -32 13 -188 -57z"/>
<path d="M1931 853 c7 -12 15 -20 18 -17 3 2 -3 12 -13 22 -17 16 -18 16 -5
-5z"/>
<path d="M1138 853 c7 -3 16 -2 19 1 4 3 -2 6 -13 5 -11 0 -14 -3 -6 -6z"/>
<path d="M999 792 c-114 -37 -206 -71 -205 -77 0 -5 6 -9 11 -8 6 1 30 7 55
12 52 11 330 117 345 132 12 12 33 18 -206 -59z"/>
<path d="M1734 785 c-84 -40 -209 -103 -279 -140 l-127 -68 25 -24 c19 -20 28
-23 43 -14 11 5 70 39 131 75 62 36 159 89 215 117 57 28 116 62 131 75 16 13
35 24 44 24 13 0 13 3 3 15 -7 8 -18 15 -24 14 -6 0 -79 -33 -162 -74z"/>
<path d="M883 787 c-140 -40 -213 -65 -213 -74 0 -17 15 -17 30 2 7 8 24 15
39 15 14 0 107 27 206 59 99 33 173 59 165 59 -8 0 -111 -28 -227 -61z"/>
<path d="M1051 771 c-149 -58 -186 -84 -113 -77 59 6 266 97 270 119 2 9 0 17
-5 16 -4 -1 -73 -27 -152 -58z"/>
<path d="M1110 739 c-52 -22 -103 -42 -112 -47 -15 -6 -15 -9 -3 -26 14 -18
18 -17 109 25 65 29 96 49 100 63 3 11 4 21 3 22 -1 1 -45 -16 -97 -37z"/>
<path d="M1735 712 c-60 -32 -149 -81 -198 -111 -85 -51 -87 -53 -67 -69 11
-9 25 -34 32 -54 l13 -37 170 110 c94 60 176 113 183 117 10 6 9 15 -4 40 -9
18 -13 39 -10 47 8 22 0 19 -119 -43z"/>
<path d="M623 718 c15 -5 27 -15 27 -20 0 -6 3 -8 6 -5 11 11 -17 37 -40 36
-18 0 -17 -2 7 -11z"/>
<path d="M727 713 c-4 -3 5 -12 20 -20 32 -16 46 -7 19 13 -22 16 -30 17 -39
7z"/>
<path d="M551 692 c-49 -16 -52 -18 -37 -31 13 -11 17 -26 14 -52 -4 -44 17
-43 27 1 7 32 29 54 63 65 19 5 21 9 11 21 -14 17 -11 17 -78 -4z"/>
<path d="M850 686 c26 -13 40 -12 40 5 0 5 -15 9 -32 9 l-33 0 25 -14z"/>
<path d="M660 675 c-17 -10 -20 -14 -9 -15 9 0 22 -6 28 -14 11 -13 15 -12 32
5 10 10 24 19 30 19 5 0 7 5 4 10 -9 14 -56 12 -85 -5z"/>
<path d="M798 673 c-16 -4 -16 -6 -3 -20 18 -17 69 -10 62 10 -4 13 -32 18
-59 10z"/>
<path d="M938 663 c17 -9 32 -20 32 -25 0 -4 5 -8 10 -8 15 0 12 16 -6 34 -8
9 -27 16 -42 15 l-27 0 33 -16z"/>
<path d="M458 654 c-2 -5 -4 -25 -4 -44 1 -31 4 -35 29 -35 21 -1 29 5 33 22
9 33 -3 56 -23 49 -9 -4 -20 -2 -23 5 -4 6 -9 7 -12 3z"/>
<path d="M728 649 c-18 -10 -23 -44 -12 -73 5 -13 13 -10 40 20 38 40 41 49
18 58 -21 8 -26 7 -46 -5z"/>
<path d="M586 634 c-20 -20 -21 -44 -1 -44 8 0 15 -7 15 -15 0 -22 44 -19 65
5 15 17 16 24 7 45 -14 29 -61 35 -86 9z"/>
<path d="M853 638 c-34 -11 -45 -28 -18 -28 9 0 20 -11 27 -25 l11 -24 27 22
c15 12 36 27 46 34 17 10 17 13 4 22 -18 13 -54 12 -97 -1z"/>
<path d="M1060 640 c8 -5 22 -10 30 -10 13 0 13 1 0 10 -8 5 -22 10 -30 10
-13 0 -13 -1 0 -10z"/>
<path d="M977 614 c-27 -14 -28 -16 -11 -29 15 -11 25 -10 61 8 23 11 40 24
37 29 -8 13 -57 9 -87 -8z"/>
<path d="M780 590 c0 -11 -7 -20 -16 -20 -11 0 -14 -8 -12 -27 2 -16 9 -28 16
-28 7 0 16 -5 20 -12 13 -21 57 8 60 41 5 42 -5 61 -23 46 -12 -10 -16 -9 -21
4 -9 22 -24 20 -24 -4z"/>
<path d="M1118 594 c13 -9 26 -13 30 -9 8 8 -17 25 -38 25 -9 0 -6 -6 8 -16z"/>
<path d="M685 580 c-3 -5 -1 -10 4 -10 6 0 11 5 11 10 0 6 -2 10 -4 10 -3 0
-8 -4 -11 -10z"/>
<path d="M1022 578 l-22 -11 20 -22 21 -23 40 22 c21 11 37 26 36 31 -5 14
-68 16 -95 3z"/>
<path d="M1231 571 c13 -11 26 -18 28 -15 7 7 -21 34 -36 34 -10 0 -8 -6 8
-19z"/>
<path d="M895 556 c-13 -20 -14 -29 -5 -46 12 -22 12 -22 31 9 11 18 26 34 34
37 21 9 8 24 -20 24 -15 0 -31 -10 -40 -24z"/>
<path d="M1126 554 c-28 -16 -28 -16 -7 -30 22 -16 30 -74 10 -74 -5 0 -8 -4
-5 -9 4 -5 0 -12 -6 -15 -7 -3 -4 -5 6 -3 13 1 23 13 28 35 6 20 23 43 48 61
29 21 36 31 27 40 -16 16 -67 13 -101 -5z"/>
<path d="M1321 548 c8 -7 20 -20 27 -27 7 -9 12 -10 12 -4 0 15 -28 43 -43 43
-6 0 -5 -5 4 -12z"/>
<path d="M952 538 c-9 -9 -9 -15 1 -27 10 -12 9 -14 -5 -8 -14 5 -18 1 -18
-18 0 -14 5 -25 10 -25 6 0 10 -7 10 -15 0 -18 16 -20 24 -2 5 10 7 10 12 0 3
-7 9 -13 13 -13 10 0 31 47 31 70 0 39 -51 65 -78 38z"/>
<path d="M1260 539 c-12 -9 -13 -11 -1 -16 7 -3 22 -14 31 -23 15 -15 22 -16
35 -7 13 10 13 15 3 29 -17 22 -50 30 -68 17z"/>
<path d="M1372 503 l-43 -26 22 -23 c12 -13 23 -35 25 -49 4 -38 8 -40 53 -14
37 20 41 27 41 61 0 25 -7 45 -20 58 -25 25 -26 25 -78 -7z"/>
<path d="M1056 504 c-19 -49 13 -122 35 -82 5 10 17 24 26 33 12 13 13 21 5
41 -13 28 -56 33 -66 8z"/>
<path d="M1186 491 c-25 -27 -17 -72 14 -88 21 -11 27 -10 38 5 7 9 18 16 24
14 5 -1 8 3 5 10 -2 7 3 21 12 31 15 17 14 20 -4 33 -27 20 -69 17 -89 -5z"/>
<path d="M1297 453 c-12 -3 -16 -10 -13 -20 4 -9 -1 -17 -14 -20 -27 -7 -25
-26 4 -58 19 -20 30 -24 50 -19 28 7 51 36 38 49 -4 4 -7 16 -7 27 0 24 -32
47 -58 41z"/>
</g>
</svg>
